<svg xmlns="http://www.w3.org/2000/svg" style="display: none;">
  <defs>
    <!-- King -->
    <symbol id="chess-king" viewBox="0 0 64 64">
      <path d="M30 8h4v6h6v4h-6v6h-4v-6h-6v-4h6V8z" fill="currentColor" opacity="0.9"/>
      <ellipse cx="32" cy="28" rx="8" ry="6" fill="currentColor" opacity="0.85"/>
      <path d="M24 32c0-2 2-4 8-4s8 2 8 4v12c0 4-3 8-8 8s-8-4-8-8V32z" fill="currentColor"/>
      <rect x="18" y="52" width="28" height="6" rx="2" fill="currentColor"/>
    </symbol>
    
    <!-- Queen -->
    <symbol id="chess-queen" viewBox="0 0 64 64">
      <circle cx="16" cy="12" r="3" fill="currentColor" opacity="0.8"/>
      <circle cx="32" cy="8" r="4" fill="currentColor" opacity="0.9"/>
      <circle cx="48" cy="12" r="3" fill="currentColor" opacity="0.8"/>
      <circle cx="24" cy="18" r="2.5" fill="currentColor" opacity="0.75"/>
      <circle cx="40" cy="18" r="2.5" fill="currentColor" opacity="0.75"/>
      <path d="M22 24c-2 0-4 2-4 4v14c0 6 4 10 14 10s14-4 14-10V28c0-2-2-4-4-4H22z" fill="currentColor"/>
      <rect x="18" y="52" width="28" height="6" rx="2" fill="currentColor"/>
    </symbol>
    
    <!-- Rook -->
    <symbol id="chess-rook" viewBox="0 0 64 64">
      <rect x="20" y="8" width="6" height="8" fill="currentColor" opacity="0.85"/>
      <rect x="29" y="8" width="6" height="8" fill="currentColor" opacity="0.85"/>
      <rect x="38" y="8" width="6" height="8" fill="currentColor" opacity="0.85"/>
      <path d="M18 16h28v8H18z" fill="currentColor" opacity="0.9"/>
      <path d="M22 24h20v20c0 4-2 8-10 8s-10-4-10-8V24z" fill="currentColor"/>
      <rect x="18" y="52" width="28" height="6" rx="2" fill="currentColor"/>
    </symbol>
    
    <!-- Bishop -->
    <symbol id="chess-bishop" viewBox="0 0 64 64">
      <circle cx="32" cy="12" r="4" fill="currentColor" opacity="0.9"/>
      <ellipse cx="32" cy="20" rx="6" ry="4" fill="currentColor" opacity="0.85"/>
      <path d="M26 24c-2 2-2 4-2 6v12c0 6 3 10 8 10s8-4 8-10V30c0-2 0-4-2-6l-12 0z" fill="currentColor"/>
      <ellipse cx="32" cy="36" rx="3" ry="2" fill="currentColor" opacity="0.3"/>
      <rect x="18" y="52" width="28" height="6" rx="2" fill="currentColor"/>
    </symbol>
    
    <!-- Knight -->
    <symbol id="chess-knight" viewBox="0 0 64 64">
      <path d="M28 10c-4 0-6 2-6 6v4c0 2 1 4 3 5l-1 8c-1 2 0 4 2 5v8c0 2 2 4 4 4h8c2 0 4-2 4-4v-8c2-1 3-3 2-5l-1-8c2-1 3-3 3-5v-4c0-4-2-6-6-6h-12z" fill="currentColor"/>
      <circle cx="34" cy="18" r="2" fill="currentColor" opacity="0.3"/>
      <path d="M32 8l4 4-4-2-4 2 4-4z" fill="currentColor" opacity="0.85"/>
      <rect x="18" y="52" width="28" height="6" rx="2" fill="currentColor"/>
    </symbol>
    
    <!-- Pawn -->
    <symbol id="chess-pawn" viewBox="0 0 64 64">
      <circle cx="32" cy="16" r="6" fill="currentColor" opacity="0.9"/>
      <ellipse cx="32" cy="26" rx="7" ry="4" fill="currentColor" opacity="0.85"/>
      <path d="M26 30c-1 1-2 2-2 4v10c0 4 3 8 8 8s8-4 8-8V34c0-2-1-3-2-4h-12z" fill="currentColor"/>
      <rect x="20" y="52" width="24" height="6" rx="2" fill="currentColor"/>
    </symbol>
  </defs>
</svg>
